<svg width="16" height="16" viewBox="0 0 16 16" fill="none" xmlns="http://www.w3.org/2000/svg">
<path d="M8.00016 1.33334C11.6822 1.33334 14.6668 4.31801 14.6668 8.00001C14.6668 11.682 11.6822 14.6667 8.00016 14.6667C4.31816 14.6667 1.3335 11.682 1.3335 8.00001C1.3335 4.31801 4.31816 1.33334 8.00016 1.33334ZM8.00016 2.66668C6.58567 2.66668 5.22912 3.22858 4.22893 4.22877C3.22873 5.22897 2.66683 6.58552 2.66683 8.00001C2.66683 9.4145 3.22873 10.7711 4.22893 11.7712C5.22912 12.7714 6.58567 13.3333 8.00016 13.3333C9.41465 13.3333 10.7712 12.7714 11.7714 11.7712C12.7716 10.7711 13.3335 9.4145 13.3335 8.00001C13.3335 6.58552 12.7716 5.22897 11.7714 4.22877C10.7712 3.22858 9.41465 2.66668 8.00016 2.66668ZM8.00016 4.00001C8.16345 4.00003 8.32105 4.05998 8.44308 4.16849C8.5651 4.27699 8.64306 4.42651 8.66216 4.58868L8.66683 4.66668V7.72401L10.4715 9.52868C10.5911 9.64865 10.6605 9.80963 10.6656 9.97893C10.6708 10.1482 10.6114 10.3132 10.4993 10.4402C10.3873 10.5672 10.2311 10.6469 10.0625 10.6629C9.8939 10.679 9.72549 10.6303 9.5915 10.5267L9.52883 10.4713L7.52883 8.47134C7.42522 8.36764 7.35867 8.23268 7.3395 8.08734L7.3335 8.00001V4.66668C7.3335 4.48987 7.40373 4.3203 7.52876 4.19527C7.65378 4.07025 7.82335 4.00001 8.00016 4.00001Z" fill="#1E1E1E"/>
</svg>
