<svg width="20" height="21" viewBox="0 0 20 21" fill="none" xmlns="http://www.w3.org/2000/svg">
<g clip-path="url(#clip0_123_496)">
<path d="M20 10.2782C20 4.75534 15.5229 0.278191 10 0.278191C4.47715 0.278191 0 4.75534 0 10.2782C0 15.2695 3.65686 19.4065 8.4375 20.1567V13.1688H5.89844V10.2782H8.4375V8.07507C8.4375 5.56882 9.93043 4.18444 12.2146 4.18444C13.3087 4.18444 14.4531 4.37975 14.4531 4.37975V6.84069H13.1921C11.9499 6.84069 11.5625 7.61153 11.5625 8.40235V10.2782H14.3359L13.8926 13.1688H11.5625V20.1567C16.3431 19.4065 20 15.2695 20 10.2782Z" fill="#1877F2"/>
<path d="M13.8926 13.1688L14.3359 10.2782H11.5625V8.40236C11.5625 7.61154 11.9499 6.8407 13.1922 6.8407H14.4531V4.37976C14.4531 4.37976 13.3087 4.18445 12.2146 4.18445C9.93043 4.18445 8.4375 5.56882 8.4375 8.07507V10.2782H5.89844V13.1688H8.4375V20.1567C8.94662 20.2366 9.46844 20.2782 10 20.2782C10.5316 20.2782 11.0534 20.2366 11.5625 20.1567V13.1688H13.8926Z" fill="white"/>
</g>
<defs>
<clipPath id="clip0_123_496">
<rect width="20" height="20" fill="white" transform="translate(0 0.278198)"/>
</clipPath>
</defs>
</svg>
