<svg width="24" height="24" viewBox="0 0 24 24" fill="none" xmlns="http://www.w3.org/2000/svg">
<path opacity="0.15" d="M6.25 22.75C6.25 22.9489 6.8558 23.1397 7.93414 23.2803C9.01247 23.421 10.475 23.5 12 23.5C13.525 23.5 14.9875 23.421 16.0659 23.2803C17.1442 23.1397 17.75 22.9489 17.75 22.75C17.75 22.5511 17.1442 22.3603 16.0659 22.2197C14.9875 22.079 13.525 22 12 22C10.475 22 9.01247 22.079 7.93414 22.2197C6.8558 22.3603 6.25 22.5511 6.25 22.75Z" fill="#45413C"/>
<path d="M7.22021 15.305C7.60021 14.125 6.32522 11.95 8.93522 11C8.52522 13.43 11.9052 14.125 11.1352 16.55L7.22021 15.305Z" fill="#FF6242" stroke="#45413C" stroke-width="0.5" stroke-linecap="round" stroke-linejoin="round"/>
<path d="M16.75 6.25C17.2 7.495 17.055 8.22 16.5 8.75C13.96 7.15 10.93 6 10.44 2.5C5.25 6.5 13 12 9.25 13.5C7.395 14.245 5.75 12.5 6 10.545C5.45777 11.053 5.02338 11.665 4.72273 12.3445C4.42207 13.024 4.2613 13.7571 4.25 14.5C4.25 17.95 7.72 20.75 12 20.75C21.8 20.75 21 7.75 16.75 6.25Z" fill="#FF6242" stroke="#45413C" stroke-width="0.5" stroke-linecap="round" stroke-linejoin="round"/>
<path d="M15.5001 14C14.7501 16.25 12.7401 17.145 10.9551 17.24C11.1499 17.6864 11.4709 18.0662 11.8786 18.3327C12.2863 18.5991 12.763 18.7407 13.2501 18.74C16.0601 18.75 18.0001 15.75 15.5001 14Z" fill="#FFE500" stroke="#45413C" stroke-width="0.5" stroke-linecap="round" stroke-linejoin="round"/>
</svg>
