<svg width="20" height="21" viewBox="0 0 20 21" fill="none" xmlns="http://www.w3.org/2000/svg">
<g clip-path="url(#clip0_123_505)">
<path d="M16.518 4.93472C16.518 4.27086 15.98 3.7348 15.3186 3.7348C14.6572 3.7348 14.1187 4.27086 14.1187 4.93472C14.1187 5.59614 14.6572 6.13217 15.3186 6.13217C15.98 6.13217 16.518 5.59614 16.518 4.93472Z" fill="url(#paint0_linear_123_505)"/>
<path d="M18.1161 14.3009C18.0717 15.2748 17.9088 15.8039 17.7736 16.1553C17.5919 16.6213 17.3753 16.9545 17.0239 17.3039C16.6764 17.6534 16.3432 17.8696 15.8772 18.0492C15.5258 18.1865 14.9947 18.3498 14.0209 18.3962C12.9681 18.4427 12.6561 18.4525 9.98629 18.4525C7.31895 18.4525 7.00449 18.4427 5.95169 18.3962C4.97787 18.3498 4.44921 18.1865 4.09775 18.0492C3.62935 17.8696 3.29866 17.6534 2.9492 17.3039C2.59726 16.9545 2.38059 16.6213 2.20142 16.1553C2.06615 15.8039 1.90082 15.2748 1.85884 14.3009C1.80753 13.2481 1.79813 12.9312 1.79813 10.2668C1.79813 7.59703 1.80753 7.28261 1.85884 6.22977C1.90082 5.25595 2.06615 4.72733 2.20142 4.37291C2.38059 3.90746 2.59726 3.57625 2.9492 3.22679C3.29866 2.87785 3.62935 2.66114 4.09775 2.47952C4.44921 2.34181 4.97787 2.18089 5.95169 2.13451C7.00449 2.08808 7.31895 2.07624 9.98629 2.07624C12.6561 2.07624 12.9681 2.08808 14.0209 2.13451C14.9947 2.18089 15.5258 2.34181 15.8772 2.47952C16.3432 2.66114 16.6764 2.87785 17.0239 3.22679C17.3753 3.57625 17.5919 3.90746 17.7736 4.37291C17.9088 4.72733 18.0717 5.25595 18.1161 6.22977C18.165 7.28261 18.1769 7.59703 18.1769 10.2668C18.1769 12.9312 18.165 13.2481 18.1161 14.3009ZM19.9143 6.14786C19.8655 5.08366 19.6976 4.35662 19.4484 3.72336C19.1947 3.06639 18.8546 2.50962 18.2978 1.95285C17.7435 1.39857 17.1867 1.05847 16.5298 0.801816C15.894 0.555011 15.1694 0.385203 14.1048 0.338819C13.0401 0.287473 12.7 0.278107 9.98629 0.278107C7.27498 0.278107 6.93247 0.287473 5.86779 0.338819C4.80558 0.385203 4.08146 0.555011 3.44278 0.801816C2.78828 1.05847 2.23151 1.39857 1.67722 1.95285C1.12046 2.50962 0.780363 3.06639 0.524191 3.72336C0.277384 4.35662 0.109576 5.08366 0.0582311 6.14786C0.0118461 7.21254 0 7.5531 0 10.2668C0 12.9782 0.0118461 13.3182 0.0582311 14.3829C0.109576 15.4451 0.277384 16.1716 0.524191 16.8079C0.780363 17.4624 1.12046 18.0216 1.67722 18.5759C2.23151 19.1302 2.78828 19.4728 3.44278 19.7289C4.08146 19.9757 4.80558 20.1435 5.86779 20.1924C6.93247 20.2413 7.27498 20.2531 9.98629 20.2531C12.7 20.2531 13.0401 20.2413 14.1048 20.1924C15.1694 20.1435 15.894 19.9757 16.5298 19.7289C17.1867 19.4728 17.7435 19.1302 18.2978 18.5759C18.8546 18.0216 19.1947 17.4624 19.4484 16.8079C19.6976 16.1716 19.8655 15.4451 19.9143 14.3829C19.9632 13.3182 19.975 12.9782 19.975 10.2668C19.975 7.5531 19.9632 7.21254 19.9143 6.14786Z" fill="url(#paint1_linear_123_505)"/>
<path d="M9.98627 13.5933C8.14863 13.5933 6.6575 12.1046 6.6575 10.2669C6.6575 8.42633 8.14863 6.93573 9.98627 6.93573C11.8244 6.93573 13.3175 8.42633 13.3175 10.2669C13.3175 12.1046 11.8244 13.5933 9.98627 13.5933ZM9.98627 5.13513C7.15357 5.13513 4.85938 7.43423 4.85938 10.2669C4.85938 13.0972 7.15357 15.3939 9.98627 15.3939C12.819 15.3939 15.1156 13.0972 15.1156 10.2669C15.1156 7.43423 12.819 5.13513 9.98627 5.13513Z" fill="url(#paint2_linear_123_505)"/>
</g>
<defs>
<linearGradient id="paint0_linear_123_505" x1="0.180235" y1="20.0467" x2="18.3114" y2="1.91561" gradientUnits="userSpaceOnUse">
<stop stop-color="#FFD521"/>
<stop offset="0.05" stop-color="#FFD521"/>
<stop offset="0.501119" stop-color="#F50000"/>
<stop offset="0.95" stop-color="#B900B4"/>
<stop offset="0.950079" stop-color="#B900B4"/>
<stop offset="1" stop-color="#B900B4"/>
</linearGradient>
<linearGradient id="paint1_linear_123_505" x1="0.180172" y1="20.0715" x2="18.3262" y2="1.92546" gradientUnits="userSpaceOnUse">
<stop stop-color="#FFD521"/>
<stop offset="0.05" stop-color="#FFD521"/>
<stop offset="0.501119" stop-color="#F50000"/>
<stop offset="0.95" stop-color="#B900B4"/>
<stop offset="0.950079" stop-color="#B900B4"/>
<stop offset="1" stop-color="#B900B4"/>
</linearGradient>
<linearGradient id="paint2_linear_123_505" x1="0.184868" y1="20.0721" x2="18.3265" y2="1.93041" gradientUnits="userSpaceOnUse">
<stop stop-color="#FFD521"/>
<stop offset="0.05" stop-color="#FFD521"/>
<stop offset="0.501119" stop-color="#F50000"/>
<stop offset="0.95" stop-color="#B900B4"/>
<stop offset="0.950079" stop-color="#B900B4"/>
<stop offset="1" stop-color="#B900B4"/>
</linearGradient>
<clipPath id="clip0_123_505">
<rect width="20" height="20" fill="white" transform="translate(0 0.278198)"/>
</clipPath>
</defs>
</svg>
