<svg width="20" height="18" viewBox="0 0 20 18" fill="none" xmlns="http://www.w3.org/2000/svg">
<g clip-path="url(#clip0_123_529)">
<path d="M19.0186 16.6299C19.0615 16.6303 19.1041 16.622 19.1436 16.6055C19.1831 16.5889 19.2188 16.5645 19.2484 16.5338C19.2781 16.503 19.301 16.4666 19.3158 16.4267C19.3306 16.3868 19.3369 16.3443 19.3344 16.3019C19.3344 16.0693 19.1927 15.9582 18.9019 15.9582H18.4321V17.176H18.6088V16.6451H18.826L18.8309 16.6516L19.1679 17.176H19.3569L18.9943 16.6333L19.0186 16.6299ZM18.8143 16.5079H18.6093V16.0962H18.8691C19.0032 16.0962 19.1562 16.1179 19.1562 16.2918C19.1562 16.4919 19.0014 16.5079 18.8132 16.5079" fill="#0A66C2"/>
<path d="M14.4088 15.1038H11.9031V11.2183C11.9031 10.2918 11.8864 9.09908 10.5998 9.09908C9.29477 9.09908 9.09509 10.1086 9.09509 11.1509V15.1035H6.58934V7.11345H8.99485V8.20538H9.02853C9.26927 7.79782 9.61713 7.46255 10.0351 7.23527C10.453 7.00798 10.9254 6.8972 11.4019 6.91471C13.9416 6.91471 14.4099 8.56875 14.4099 10.7206L14.4088 15.1038ZM3.76203 6.02127C3.47444 6.02132 3.19328 5.93693 2.95412 5.77877C2.71497 5.6206 2.52856 5.39577 2.41845 5.1327C2.30835 4.86963 2.27949 4.58014 2.33555 4.30084C2.39161 4.02154 2.53006 3.76497 2.73338 3.56358C2.93671 3.36218 3.19578 3.22501 3.47784 3.1694C3.7599 3.1138 4.05227 3.14226 4.318 3.25119C4.58372 3.36011 4.81085 3.54461 4.97068 3.78136C5.1305 4.0181 5.21584 4.29646 5.21589 4.58122C5.21592 4.7703 5.17834 4.95753 5.10529 5.13222C5.03225 5.30692 4.92518 5.46566 4.79018 5.59938C4.65518 5.7331 4.49488 5.83919 4.31847 5.91157C4.14207 5.98396 3.95299 6.02124 3.76203 6.02127ZM5.0149 15.1038H2.50655V7.11345H5.0149V15.1038ZM15.658 0.837658H1.24742C0.920345 0.834003 0.605164 0.959074 0.371168 1.18539C0.137172 1.4117 0.00350356 1.72074 -0.000488281 2.04459V16.3725C0.00336693 16.6965 0.136957 17.0057 0.370945 17.2323C0.604933 17.4588 0.920182 17.5841 1.24742 17.5807H15.658C15.9859 17.5848 16.3021 17.4598 16.537 17.2333C16.7719 17.0067 16.9064 16.6971 16.9109 16.3725V2.04356C16.9062 1.71906 16.7717 1.40967 16.5367 1.18336C16.3018 0.957057 15.9858 0.832344 15.658 0.836624" fill="#0A66C2"/>
<path d="M18.8354 15.4157C18.5306 15.4186 18.2393 15.541 18.0252 15.756C17.8112 15.971 17.6919 16.2611 17.6934 16.563C17.6948 16.8649 17.817 17.1539 18.0331 17.3668C18.2492 17.5798 18.5417 17.6993 18.8465 17.6993C19.1514 17.6993 19.4439 17.5798 19.66 17.3668C19.8761 17.1539 19.9982 16.8649 19.9997 16.563C20.0011 16.2611 19.8818 15.971 19.6678 15.756C19.4538 15.541 19.1625 15.4186 18.8576 15.4157H18.8354ZM18.8354 17.5686C18.6355 17.5719 18.439 17.5164 18.2709 17.4091C18.1028 17.3019 17.9706 17.1477 17.891 16.966C17.8114 16.7843 17.788 16.5834 17.8237 16.3886C17.8595 16.1937 17.9528 16.0138 18.0918 15.8714C18.2308 15.7291 18.4094 15.6308 18.6049 15.5889C18.8003 15.5471 19.004 15.5635 19.19 15.6363C19.376 15.709 19.536 15.8347 19.6499 15.9975C19.7638 16.1603 19.8263 16.3528 19.8296 16.5508C19.8296 16.5565 19.8296 16.5619 19.8296 16.5676C19.8352 16.8274 19.7364 17.0787 19.5549 17.2663C19.3734 17.4539 19.1241 17.5624 18.8618 17.5681H18.8357" fill="#0A66C2"/>
</g>
<defs>
<clipPath id="clip0_123_529">
<rect width="20" height="16.8831" fill="white" transform="translate(0 0.836639)"/>
</clipPath>
</defs>
</svg>
