<svg width="32" height="32" viewBox="0 0 32 32" fill="none" xmlns="http://www.w3.org/2000/svg">
<g id="tabler:mail-filled">
<g id="Group">
<path id="Vector" d="M29.3334 10.0468V22.6668C29.3335 23.687 28.9436 24.6688 28.2437 25.4111C27.5438 26.1534 26.5866 26.6002 25.5681 26.6601L25.3334 26.6668H6.66675C5.64647 26.6668 4.66473 26.277 3.9224 25.577C3.18007 24.8771 2.73327 23.9199 2.67341 22.9014L2.66675 22.6668V10.0468L15.2601 18.4428L15.4147 18.5308C15.597 18.6198 15.7972 18.6661 16.0001 18.6661C16.2029 18.6661 16.4031 18.6198 16.5854 18.5308L16.7401 18.4428L29.3334 10.0468Z" fill="#F8F8F8"/>
<path id="Vector_2" d="M25.3333 5.33337C26.7733 5.33337 28.036 6.09337 28.74 7.23604L16 15.7294L3.26001 7.23604C3.5944 6.69314 4.05373 6.23804 4.59971 5.90869C5.14568 5.57935 5.76248 5.38529 6.39868 5.34271L6.66668 5.33337H25.3333Z" fill="#F8F8F8"/>
</g>
</g>
</svg>
