<svg width="32" height="32" viewBox="0 0 32 32" fill="none" xmlns="http://www.w3.org/2000/svg">
<g id="ion:call">
<path id="Vector" d="M24.4375 30C23.2175 30 21.5037 29.5588 18.9375 28.125C15.8168 26.375 13.4031 24.7594 10.2993 21.6638C7.30684 18.6732 5.85059 16.7369 3.81247 13.0282C1.50997 8.84066 1.90247 6.64566 2.34122 5.70753C2.86372 4.58628 3.63497 3.91566 4.63184 3.25003C5.19806 2.87905 5.79726 2.56104 6.42184 2.30003C6.48434 2.27316 6.54247 2.24753 6.59434 2.22441C6.90372 2.08503 7.37247 1.87441 7.96622 2.09941C8.36247 2.24816 8.71622 2.55253 9.26997 3.09941C10.4056 4.21941 11.9575 6.71378 12.53 7.93878C12.9143 8.76441 13.1687 9.30941 13.1693 9.92066C13.1693 10.6363 12.8093 11.1882 12.3725 11.7838C12.2906 11.8957 12.2093 12.0025 12.1306 12.1063C11.655 12.7313 11.5506 12.9119 11.6193 13.2344C11.7587 13.8825 12.7981 15.8119 14.5062 17.5163C16.2143 19.2207 18.0881 20.1944 18.7387 20.3332C19.075 20.405 19.2593 20.2963 19.9043 19.8038C19.9968 19.7332 20.0918 19.66 20.1912 19.5869C20.8575 19.0913 21.3837 18.7407 22.0825 18.7407H22.0862C22.6943 18.7407 23.215 19.0044 24.0775 19.4394C25.2025 20.0069 27.7718 21.5388 28.8987 22.6757C29.4468 23.2282 29.7525 23.5807 29.9018 23.9763C30.1268 24.5719 29.915 25.0388 29.7768 25.3513C29.7537 25.4032 29.7281 25.46 29.7012 25.5232C29.4381 26.1466 29.1182 26.7446 28.7456 27.3094C28.0812 28.3032 27.4081 29.0725 26.2843 29.5957C25.7073 29.8686 25.0758 30.0069 24.4375 30Z" fill="#F8F8F8"/>
</g>
</svg>
