<svg width="20" height="21" viewBox="0 0 20 21" fill="none" xmlns="http://www.w3.org/2000/svg">
<g clip-path="url(#clip0_123_524)">
<path d="M10.0078 20.2938C15.5349 20.2938 20.0156 15.8131 20.0156 10.286C20.0156 4.75884 15.5349 0.278198 10.0078 0.278198C4.48064 0.278198 0 4.75884 0 10.286C0 15.8131 4.48064 20.2938 10.0078 20.2938Z" fill="url(#paint0_linear_123_524)"/>
<path fill-rule="evenodd" clip-rule="evenodd" d="M4.52082 10.1769C7.43586 8.89862 9.38442 8.07243 10.3665 7.66713C13.1412 6.51359 13.718 6.31094 14.0921 6.29535C14.1701 6.29535 14.3571 6.31094 14.4818 6.40447C14.5754 6.48241 14.6066 6.59153 14.6221 6.66947C14.6377 6.74741 14.6533 6.91889 14.6377 7.05918C14.4818 8.63362 13.8427 12.484 13.4998 14.2455C13.3595 14.9937 13.0789 15.2431 12.8139 15.2743C12.2371 15.3211 11.785 14.8846 11.2239 14.5261C10.3509 13.9493 9.85207 13.5908 8.99471 13.0296C8.01263 12.3749 8.65176 12.0163 9.21295 11.4395C9.35324 11.2837 11.9253 8.96098 11.9721 8.74274C11.9721 8.71156 11.9877 8.61803 11.9253 8.57127C11.863 8.5245 11.785 8.54009 11.7227 8.55568C11.6292 8.57126 10.2262 9.50657 7.49821 11.346C7.09291 11.6266 6.73438 11.7513 6.40702 11.7513C6.04849 11.7513 5.36259 11.5487 4.84818 11.3772C4.22464 11.1745 3.72581 11.0654 3.77257 10.7225C3.80375 10.551 4.05316 10.3639 4.52082 10.1769Z" fill="white"/>
</g>
<defs>
<linearGradient id="paint0_linear_123_524" x1="0" y1="10.2787" x2="20.0011" y2="10.2787" gradientUnits="userSpaceOnUse">
<stop stop-color="#2AABEE"/>
<stop offset="1" stop-color="#229ED9"/>
</linearGradient>
<clipPath id="clip0_123_524">
<rect width="20" height="20" fill="white" transform="translate(0 0.278198)"/>
</clipPath>
</defs>
</svg>
