<svg width="20" height="23" viewBox="0 0 20 23" fill="none" xmlns="http://www.w3.org/2000/svg">
<g clip-path="url(#clip0_123_509)">
<path d="M7.78756 8.8818V8.00142C7.48439 7.96012 7.17668 7.93466 6.86272 7.93466C3.0788 7.93466 0 11.0029 0 14.7745C0 17.0886 1.15987 19.1362 2.93006 20.3741C1.78778 19.152 1.0872 17.5152 1.0872 15.7171C1.0872 11.9999 4.07857 8.96836 7.78812 8.8818H7.78756Z" fill="#25F4EE"/>
<path d="M7.94928 18.8408C9.63771 18.8408 11.015 17.5022 11.0775 15.8348L11.0837 0.943174H13.8134C13.7566 0.637081 13.7254 0.322501 13.7254 0H9.99709L9.99084 14.8916C9.92839 16.559 8.55108 17.8977 6.86265 17.8977C6.33807 17.8977 5.84357 17.767 5.40869 17.539C5.97812 18.326 6.90353 18.8408 7.94928 18.8408Z" fill="#25F4EE"/>
<path d="M18.9129 5.9974V5.16965C17.8717 5.16965 16.9014 4.86129 16.0879 4.33228C16.8123 5.16116 17.7962 5.7592 18.9129 5.9974Z" fill="#25F4EE"/>
<path d="M16.0883 4.33225C15.2946 3.42416 14.8126 2.23882 14.8126 0.942596H13.814C14.0768 2.35821 14.9199 3.57296 16.0883 4.33225Z" fill="#FE2C55"/>
<path d="M6.86295 11.6508C5.13478 11.6508 3.72852 13.0522 3.72852 14.7745C3.72852 15.974 4.4115 17.0162 5.409 17.539C5.03713 17.0252 4.81572 16.3972 4.81572 15.7171C4.81572 13.9948 6.22199 12.5934 7.95016 12.5934C8.27263 12.5934 8.58204 12.6466 8.87499 12.7377V8.94402C8.57182 8.90272 8.26411 8.87726 7.95016 8.87726C7.89566 8.87726 7.84229 8.88009 7.78835 8.88122V11.7945C7.49541 11.7034 7.18599 11.6502 6.86352 11.6502L6.86295 11.6508Z" fill="#FE2C55"/>
<path d="M18.913 5.99738V8.88517C16.9799 8.88517 15.1881 8.26903 13.7256 7.22288V14.7745C13.7256 18.5461 10.6468 21.6138 6.86292 21.6138C5.40045 21.6138 4.04471 21.1544 2.92969 20.3741C4.18324 21.7156 5.96932 22.5564 7.94956 22.5564C11.734 22.5564 14.8123 19.4881 14.8123 15.7171V8.16605C16.2748 9.2122 18.0665 9.82835 19.9996 9.82835V6.11223C19.6266 6.11223 19.2633 6.07206 18.913 5.99738Z" fill="#FE2C55"/>
<path d="M13.7252 14.7745V7.22288C15.1877 8.26902 16.9795 8.88517 18.9126 8.88517V5.99737C17.7959 5.75918 16.812 5.1617 16.0876 4.33225C14.9192 3.57296 14.0761 2.35877 13.8132 0.942596H11.0836L11.0773 15.8342C11.0149 17.5016 9.63758 18.8403 7.94915 18.8403C6.90339 18.8403 5.97799 18.3254 5.40856 17.5384C4.41105 17.015 3.72807 15.9728 3.72807 14.7739C3.72807 13.0517 5.13434 11.6502 6.86251 11.6502C7.18498 11.6502 7.4944 11.7034 7.78735 11.7945V8.88121C4.0778 8.96778 1.08643 11.9993 1.08643 15.7165C1.08643 17.5146 1.787 19.1514 2.92928 20.3736C4.04373 21.1532 5.40004 21.6132 6.86251 21.6132C10.6464 21.6132 13.7252 18.5449 13.7252 14.7739V14.7745Z" fill="black"/>
</g>
<defs>
<clipPath id="clip0_123_509">
<rect width="20" height="22.5564" fill="white"/>
</clipPath>
</defs>
</svg>
