<svg width="24" height="24" viewBox="0 0 24 24" fill="none" xmlns="http://www.w3.org/2000/svg">
<path d="M2.25 8.25H21.75M4.5 3.75H19.5C20.745 3.75 21.75 4.755 21.75 6V19.5C21.75 20.745 20.745 21.75 19.5 21.75H4.5C3.90326 21.75 3.33097 21.5129 2.90901 21.091C2.48705 20.669 2.25 20.0967 2.25 19.5V6C2.25 4.755 3.255 3.75 4.5 3.75Z" stroke="#E81C25" stroke-linecap="round" stroke-linejoin="round"/>
<path d="M5.25 8.25L8.25 3.75M10.5 8.25L13.5 3.75M15.75 8.25L18.75 3.75M9.75 12V18L15.75 15L9.75 12Z" stroke="#E81C25" stroke-linecap="round" stroke-linejoin="round"/>
</svg>
