<svg width="20" height="21" viewBox="0 0 20 21" fill="none" xmlns="http://www.w3.org/2000/svg">
<path fill-rule="evenodd" clip-rule="evenodd" d="M17.0859 3.18449C15.2061 1.31127 12.7059 0.279149 10.042 0.278198C4.55283 0.278198 0.08547 4.72365 0.08356 10.1879C0.082605 11.9347 0.54147 13.6397 1.41288 15.1423L0 20.2782L5.27909 18.9001C6.7335 19.6899 8.37128 20.1057 10.0377 20.1062H10.042C15.5302 20.1062 19.9981 15.6602 20 10.196C20.0009 7.54775 18.9662 5.05819 17.0859 3.18496V3.18449ZM10.042 18.4325H10.0387C8.55367 18.4321 7.09689 18.0348 5.82583 17.2845L5.52357 17.1058L2.39078 17.9236L3.22686 14.8838L3.03013 14.572C2.20169 13.2605 1.76383 11.7446 1.76479 10.1884C1.7667 5.64695 5.47963 1.95183 10.0454 1.95183C12.2561 1.95278 14.3342 2.81051 15.8969 4.36773C17.4598 5.92447 18.3197 7.99443 18.3188 10.195C18.3168 14.737 14.6039 18.4321 10.042 18.4321V18.4325ZM14.5819 12.2636C14.3332 12.1396 13.1099 11.5408 12.8816 11.4581C12.6534 11.3754 12.4877 11.3341 12.322 11.5821C12.1563 11.8302 11.6793 12.3881 11.5342 12.553C11.389 12.7183 11.2438 12.7388 10.9951 12.6147C10.7463 12.4907 9.94461 12.2293 8.99395 11.3859C8.25433 10.7291 7.75483 9.91849 7.60972 9.67041C7.46456 9.42238 7.59444 9.28836 7.71856 9.16529C7.83028 9.0541 7.96733 8.87591 8.09194 8.73143C8.21661 8.58696 8.25767 8.48341 8.34072 8.31848C8.42383 8.15311 8.38228 8.0087 8.32022 7.88463C8.25811 7.76062 7.76061 6.54172 7.55289 6.04611C7.35089 5.56332 7.14561 5.6289 6.99328 5.62082C6.84811 5.61369 6.68244 5.61227 6.51628 5.61227C6.35011 5.61227 6.08078 5.67404 5.85256 5.92209C5.62433 6.17012 4.98162 6.76934 4.98162 7.98774C4.98162 9.20615 5.87311 10.3842 5.99772 10.5496C6.12233 10.7149 7.75244 13.2159 10.2483 14.2889C10.8418 14.544 11.3054 14.6966 11.6669 14.8106C12.2628 14.9993 12.8052 14.9727 13.234 14.909C13.712 14.8377 14.7061 14.3098 14.9133 13.7314C15.1206 13.1531 15.1206 12.657 15.0585 12.5539C14.9964 12.4508 14.8303 12.3885 14.5815 12.2645L14.5819 12.2636Z" fill="#25D366"/>
</svg>
