<svg width="22" height="18" viewBox="0 0 22 18" fill="none" xmlns="http://www.w3.org/2000/svg">
<g clip-path="url(#clip0_123_519)">
<path d="M21.5402 3.33456C21.2872 2.27204 20.5419 1.43536 19.5952 1.1514C17.8796 0.635336 11 0.635336 11 0.635336C11 0.635336 4.12041 0.635336 2.40474 1.1514C1.4582 1.43536 0.712695 2.27204 0.459716 3.33456C0 5.26028 0 9.27819 0 9.27819C0 9.27819 0 13.296 0.459716 15.222C0.712695 16.2843 1.4582 17.121 2.40474 17.4051C4.12041 17.9211 11 17.9211 11 17.9211C11 17.9211 17.8796 17.9211 19.5952 17.4051C20.5419 17.121 21.2872 16.2843 21.5402 15.222C22 13.296 22 9.27819 22 9.27819C22 9.27819 22 5.26028 21.5402 3.33456Z" fill="#ED1D24"/>
<path d="M8.75 12.9261L14.5 9.27837L8.75 5.63025V12.9261Z" fill="white"/>
</g>
<defs>
<clipPath id="clip0_123_519">
<rect width="22" height="17.2857" fill="white" transform="translate(0 0.635345)"/>
</clipPath>
</defs>
</svg>
